
<svg width="1024" height="1024" viewBox="0 0 1024 1024" xmlns="http://www.w3.org/2000/svg">
  <rect width="1024" height="1024" fill="#2D3436"/>
  <g transform="translate(512, 512) scale(0.8)">
    <!-- Trindade de Folhas/Chamas - Representando Comunidade e Crescimento -->
    <path d="M0,-300 C165,-300 300,-165 300,0 C300,165 165,300 0,300 C-165,300 -300,165 -300,0 C-300,-165 -165,-300 0,-300 Z" fill="none" stroke="#D4AF37" stroke-width="20" opacity="0.3"/>
    <path d="M0,-250 Q150,-250 150,0 Q150,250 0,250 Q-150,250 -150,0 Q-150,-250 0,-250 Z" fill="#D4AF37"/>
    <path d="M0,-150 Q80,-150 80,0 Q80,150 0,150 Q-80,150 -80,0 Q-80,-150 0,-150 Z" fill="#2D3436" opacity="0.5"/>
    <!-- Folha Superior -->
    <path d="M0,-200 C50,-200 100,-100 0,0 C-100,-100 -50,-200 0,-200" fill="#D4AF37"/>
    <!-- Folha Direita Inferior -->
    <path d="M173,100 C198,143 123,198 0,0 C123,100 148,56 173,100" fill="#D4AF37" transform="rotate(120)"/>
    <!-- Folha Esquerda Inferior -->
    <path d="M-173,100 C-198,143 -123,198 0,0 C-123,100 -148,56 -173,100" fill="#D4AF37" transform="rotate(240)"/>
  </g>
</svg>