
<svg width="1080" height="1920" viewBox="0 0 1080 1920" xmlns="http://www.w3.org/2000/svg">
  <rect width="1080" height="1920" fill="#2D3436"/>
  <!-- Linhas de Conexão/Rede -->
  <g stroke="#D4AF37" stroke-width="2" opacity="0.2" fill="none">
    <path d="M0,1920 Q540,960 1080,0"/>
    <path d="M1080,1920 Q540,960 0,0"/>
    <path d="M540,1920 L540,0"/>
    <circle cx="540" cy="960" r="300" stroke-width="4" opacity="0.3"/>
    <circle cx="540" cy="960" r="200" stroke-width="2" opacity="0.4"/>
    <circle cx="540" cy="960" r="100" stroke-width="1" opacity="0.5"/>
  </g>
  <!-- Logo Central -->
  <g transform="translate(540, 960) scale(0.5)">
     <path d="M0,-300 C165,-300 300,-165 300,0 C300,165 165,300 0,300 C-165,300 -300,165 -300,0 C-300,-165 -165,-300 0,-300 Z" fill="none" stroke="#D4AF37" stroke-width="20"/>
     <circle cx="0" cy="-150" r="80" fill="#D4AF37"/>
     <circle cx="130" cy="75" r="80" fill="#D4AF37"/>
     <circle cx="-130" cy="75" r="80" fill="#D4AF37"/>
  </g>
</svg>